<svg width="572" height="557" viewBox="0 0 572 557" fill="none" xmlns="http://www.w3.org/2000/svg">
<g clip-path="url(#clip0)">
<path fill-rule="evenodd" clip-rule="evenodd" d="M288.595 222.002C272.026 222.002 257.026 228.718 246.169 239.576C208.699 276.597 235.248 342.162 288.596 342.002C368.181 338.843 368.164 225.151 288.595 222.002V222.002Z" fill="#002D71"/>
<path fill-rule="evenodd" clip-rule="evenodd" d="M189.601 183.007C275.972 95.58 428.971 157.526 428.593 282.004C428.594 359.321 365.915 422.001 288.595 422.001C164.107 422.361 102.173 269.375 189.601 183.007V183.007ZM288.595 102.003C238.889 102.003 193.89 122.15 161.317 154.723C48.9085 265.787 128.553 462.479 288.597 462C527.352 452.525 527.3 111.45 288.595 102.003V102.003Z" fill="#002D71"/>
<path d="M288.594 52.0027C228.774 52.0027 174.213 74.9586 133.26 112.524L117.922 97.1864L126.186 69.1626C127.222 65.6496 126.255 61.8517 123.665 59.2627L67.3327 2.92999C64.8378 0.435009 61.2128 -0.561985 57.7938 0.31001C54.3748 1.181 51.6678 3.78899 50.6688 7.17197L42.2649 35.6718L13.7651 44.0758C10.3811 45.0737 7.7731 47.7807 6.9031 51.2007C6.03211 54.6197 7.0281 58.2437 9.52308 60.7397L65.8558 117.072C68.4487 119.673 72.2827 120.624 75.7547 119.593L103.78 111.329L119.117 126.668C-15.2958 271.118 89.2436 512.663 288.597 511.999C593.71 499.373 593.643 64.5936 288.594 52.0027V52.0027ZM35.5679 58.4987L53.1458 53.3147C56.4018 52.3547 58.9488 49.8077 59.9088 46.5517L65.0928 28.9738L105.323 69.2036L98.5986 92.0045L75.7977 98.7284L35.5679 58.4987ZM288.594 492C106.952 492.601 11.3771 272.868 133.267 140.817L204.097 211.647C144.685 281.803 195.792 392.408 288.595 392C349.248 392.001 398.594 342.655 398.594 282.001C398.989 189.194 288.396 138.09 218.24 197.504L147.41 126.674C279.528 4.75498 499.209 100.426 498.593 282.004C498.594 397.795 404.389 492 288.594 492ZM281.523 289.072C291.264 298.086 304.677 284.661 295.666 274.929L232.448 211.711C290.162 164.791 378.952 206.948 378.594 282.002C378.595 331.627 338.22 372.001 288.595 372.001C213.539 372.349 171.384 283.568 218.306 225.854L281.523 289.072Z" fill="#002D71"/>
</g>
<rect y="288" width="572" height="269" fill="#2A7FFF" fill-opacity="0.8"/>
<defs>
<clipPath id="clip0">
<rect width="512" height="512" fill="white" transform="translate(6)"/>
</clipPath>
</defs>
</svg>
