<svg width="572" height="518" viewBox="0 0 572 518" fill="none" xmlns="http://www.w3.org/2000/svg">
<path d="M323.245 151.02V379.348H91.2451V151.02H323.245Z" fill="#002D71"/>
<path d="M515.737 0.6521H56.263C41.782 0.6521 30 12.4341 30 26.9151V407.085C30 421.566 41.782 433.348 56.263 433.348H515.737C530.218 433.348 542 421.566 542 407.085V26.9151C542 12.4341 530.218 0.6521 515.737 0.6521V0.6521ZM522 407.085C522 410.539 519.19 413.348 515.737 413.348H56.263C52.809 413.348 50 410.538 50 407.085V26.9151C50 23.4611 52.81 20.6521 56.263 20.6521H515.737C519.191 20.6521 522 23.4621 522 26.9151V407.085Z" fill="#002D71"/>
<path d="M207.245 266.541C228.386 266.541 245.585 249.341 245.585 228.2C245.585 207.059 228.386 189.86 207.245 189.86C186.104 189.86 168.905 207.059 168.905 228.2C168.905 249.341 186.104 266.541 207.245 266.541ZM207.245 209.86C217.358 209.86 225.585 218.088 225.585 228.2C225.585 238.313 217.357 246.541 207.245 246.541C197.133 246.541 188.905 238.313 188.905 228.2C188.904 218.087 197.132 209.86 207.245 209.86V209.86Z" fill="white"/>
<path d="M231.373 282.371H183.118C164.089 282.371 148.607 297.852 148.607 316.882V330.508C148.607 336.031 153.084 340.508 158.607 340.508C164.13 340.508 168.607 336.031 168.607 330.508V316.882C168.607 308.881 175.116 302.371 183.118 302.371H231.373C239.374 302.371 245.883 308.88 245.883 316.882V330.508C245.883 336.031 250.36 340.508 255.883 340.508C261.406 340.508 265.883 336.031 265.883 330.508V316.882C265.883 297.852 250.401 282.371 231.373 282.371Z" fill="white"/>
<path d="M480.755 169.118H377.309C371.786 169.118 367.309 173.595 367.309 179.118C367.309 184.641 371.786 189.118 377.309 189.118H480.756C486.279 189.118 490.756 184.641 490.756 179.118C490.756 173.595 486.278 169.118 480.755 169.118Z" fill="#002D71"/>
<path d="M480.755 226.496H377.309C371.786 226.496 367.309 230.973 367.309 236.496C367.309 242.019 371.786 246.496 377.309 246.496H480.756C486.279 246.496 490.756 242.019 490.756 236.496C490.756 230.973 486.278 226.496 480.755 226.496Z" fill="#002D71"/>
<path d="M480.755 283.873H377.309C371.786 283.873 367.309 288.35 367.309 293.873C367.309 299.396 371.786 303.873 377.309 303.873H480.756C486.279 303.873 490.756 299.396 490.756 293.873C490.756 288.35 486.278 283.873 480.755 283.873Z" fill="#002D71"/>
<path d="M470.755 341.25H387.308C381.785 341.25 377.308 345.727 377.308 351.25C377.308 356.773 381.785 361.25 387.308 361.25H470.755C476.278 361.25 480.755 356.773 480.755 351.25C480.755 345.727 476.278 341.25 470.755 341.25Z" fill="#002D71"/>
<path d="M192.556 105.099H379.445C384.968 105.099 389.445 100.622 389.445 95.099V51.396C389.445 45.873 384.968 41.396 379.445 41.396H192.556C187.033 41.396 182.556 45.873 182.556 51.396V95.098C182.556 100.622 187.033 105.099 192.556 105.099V105.099ZM202.556 61.396H369.445V85.098H202.556V61.396Z" fill="#002D71"/>
<rect y="249" width="572" height="269" fill="#2A7FFF" fill-opacity="0.8"/>
</svg>
