<svg width="572" height="557" viewBox="0 0 572 557" fill="none" xmlns="http://www.w3.org/2000/svg">
<path d="M286 290.666C349.72 290.666 401.376 239.377 401.376 176.108C401.376 112.839 349.72 61.55 286 61.55C222.28 61.55 170.624 112.839 170.624 176.108C170.624 239.377 222.28 290.666 286 290.666Z" fill="#002D71"/>
<path d="M508.013 165.237H494.914C489.392 165.237 484.914 169.714 484.914 175.237C484.914 180.76 489.392 185.237 494.914 185.237H508.013C513.535 185.237 518.013 180.76 518.013 175.237C518.013 169.714 513.535 165.237 508.013 165.237Z" fill="#002D71"/>
<path d="M460.059 44.4089L450.796 53.6059C446.877 57.4969 446.855 63.8289 450.745 67.7479C452.7 69.7169 455.27 70.7019 457.842 70.7019C460.389 70.7019 462.938 69.7349 464.888 67.7979L474.151 58.6009C478.07 54.7099 478.092 48.3779 474.202 44.4589C470.31 40.5409 463.978 40.5169 460.059 44.4089V44.4089Z" fill="#002D71"/>
<path d="M464.888 282.676C460.969 278.785 454.637 278.806 450.745 282.726C446.854 286.645 446.877 292.977 450.796 296.868L460.059 306.065C462.009 308.002 464.557 308.969 467.105 308.969C469.676 308.969 472.247 307.984 474.202 306.015C478.093 302.096 478.07 295.764 474.151 291.873L464.888 282.676Z" fill="#002D71"/>
<path d="M77.0861 165.237H63.9871C58.4641 165.237 53.9871 169.714 53.9871 175.237C53.9871 180.76 58.4641 185.237 63.9871 185.237H77.0861C82.6091 185.237 87.0861 180.76 87.0861 175.237C87.0861 169.714 82.6091 165.237 77.0861 165.237Z" fill="#002D71"/>
<path d="M107.113 67.798C109.064 69.735 111.612 70.702 114.159 70.702C116.73 70.702 119.301 69.717 121.255 67.748C125.146 63.829 125.124 57.497 121.205 53.606L111.942 44.409C108.022 40.517 101.691 40.539 97.8001 44.459C93.9091 48.378 93.9311 54.71 97.8501 58.601L107.113 67.798Z" fill="#002D71"/>
<path d="M107.113 282.676L97.8501 291.873C93.9311 295.764 93.9091 302.096 97.8001 306.015C99.7551 307.984 102.325 308.969 104.896 308.969C107.443 308.969 109.992 308.002 111.942 306.065L121.205 296.868C125.124 292.977 125.146 286.645 121.255 282.726C117.364 278.808 111.031 278.785 107.113 282.676V282.676Z" fill="#002D71"/>
<path d="M463.295 176.108C463.295 79.002 383.761 0 286 0C188.239 0 108.705 79.002 108.705 176.108C108.705 253.507 159.575 321.597 233.347 344.318V357.668H219.104C213.581 357.668 209.104 362.145 209.104 367.668C209.104 373.191 213.581 377.668 219.104 377.668H233.347V406.032H229.813C224.29 406.032 219.813 410.509 219.813 416.032C219.813 421.555 224.29 426.032 229.813 426.032H233.347V450.215C228.693 451.071 225.167 455.148 225.167 460.049C225.167 465.572 229.644 470.049 235.167 470.049H252.486V502C252.486 507.523 256.963 512 262.486 512H309.514C315.036 512 319.514 507.523 319.514 502V470.05H336.833C342.355 470.05 346.833 465.573 346.833 460.05C346.833 455.149 343.307 451.072 338.653 450.216V426.033H342.187C347.709 426.033 352.187 421.556 352.187 416.033C352.187 410.51 347.709 406.033 342.187 406.033H338.653V377.669H352.896C358.418 377.669 362.896 373.192 362.896 367.669C362.896 362.146 358.418 357.669 352.896 357.669H338.653V344.319C412.425 321.598 463.295 253.507 463.295 176.108ZM299.514 492H272.486V470.05H299.514V492ZM318.654 450.05H253.347V426.033H318.654V450.05ZM318.654 406.033H253.347V377.669H318.654V406.033ZM253.347 357.669V336.769C253.347 332.219 250.275 328.243 245.873 327.093C176.886 309.086 128.705 246.998 128.705 176.109C128.705 90.03 199.267 20 286 20C372.732 20 443.295 90.03 443.295 176.108C443.295 246.998 395.114 309.085 326.128 327.092C321.725 328.241 318.653 332.217 318.653 336.768V357.668H253.347V357.669Z" fill="#002D71"/>
<path d="M326.182 196.903C322.276 192.998 315.946 192.998 312.039 196.903L286 222.943L259.96 196.903C256.055 192.998 249.723 192.998 245.817 196.903C241.911 200.808 241.912 207.14 245.817 211.046L278.928 244.157C280.803 246.032 283.347 247.086 285.999 247.086C288.651 247.086 291.194 246.032 293.07 244.157L326.18 211.046C330.087 207.14 330.087 200.809 326.182 196.903Z" fill="white"/>
<rect y="288" width="572" height="269" fill="#2A7FFF" fill-opacity="0.8"/>
</svg>
