<svg width="572" height="557" viewBox="0 0 572 557" fill="none" xmlns="http://www.w3.org/2000/svg">
<path d="M293.34 64.574H287.683V129.959H293.34C362.95 129.959 419.381 186.389 419.381 256C419.381 325.611 362.95 382.041 293.34 382.041H287.683V447.426H293.34C399.062 447.426 484.766 361.722 484.766 256C484.766 150.278 399.062 64.574 293.34 64.574V64.574Z" fill="#002D71"/>
<path d="M207.799 30H287.683V482H207.799V30Z" fill="#002D71"/>
<path d="M166.393 0H97.234C91.712 0 87.234 4.477 87.234 10V452.636C87.234 454.689 87.866 456.692 89.044 458.373L123.624 507.737C125.496 510.409 128.553 512 131.814 512C135.075 512 138.133 510.409 140.004 507.737L174.583 458.373C175.761 456.692 176.393 454.688 176.393 452.636V10C176.393 4.477 171.915 0 166.393 0ZM156.393 401.207H107.234V77.913H156.393V401.207ZM107.234 421.208H156.393V442.446H107.234V421.208ZM107.234 20H156.393V57.913H107.234V20ZM131.814 484.57L116.315 462.445H147.312L131.814 484.57Z" fill="#002D71"/>
<path d="M242.66 88.6499H249.681C255.203 88.6499 259.681 84.1729 259.681 78.6499C259.681 73.1269 255.203 68.6499 249.681 68.6499H242.66C237.138 68.6499 232.66 73.1269 232.66 78.6499C232.66 84.1729 237.138 88.6499 242.66 88.6499Z" fill="white"/>
<path d="M249.681 139.59H242.66C237.138 139.59 232.66 144.067 232.66 149.59C232.66 155.113 237.138 159.59 242.66 159.59H249.681C255.203 159.59 259.681 155.113 259.681 149.59C259.681 144.067 255.203 139.59 249.681 139.59Z" fill="white"/>
<path d="M249.681 210.53H242.66C237.138 210.53 232.66 215.007 232.66 220.53C232.66 226.053 237.138 230.53 242.66 230.53H249.681C255.203 230.53 259.681 226.053 259.681 220.53C259.681 215.007 255.203 210.53 249.681 210.53Z" fill="white"/>
<path d="M249.681 281.47H242.66C237.138 281.47 232.66 285.947 232.66 291.47C232.66 296.993 237.138 301.47 242.66 301.47H249.681C255.203 301.47 259.681 296.993 259.681 291.47C259.681 285.947 255.203 281.47 249.681 281.47Z" fill="white"/>
<path d="M249.681 352.41H242.66C237.138 352.41 232.66 356.887 232.66 362.41C232.66 367.933 237.138 372.41 242.66 372.41H249.681C255.203 372.41 259.681 367.933 259.681 362.41C259.681 356.887 255.203 352.41 249.681 352.41Z" fill="white"/>
<path d="M249.681 423.35H242.66C237.138 423.35 232.66 427.827 232.66 433.35C232.66 438.873 237.138 443.35 242.66 443.35H249.681C255.203 443.35 259.681 438.873 259.681 433.35C259.681 427.827 255.203 423.35 249.681 423.35Z" fill="white"/>
<rect y="288" width="572" height="269" fill="#2A7FFF" fill-opacity="0.8"/>
</svg>
