<svg width="572" height="557" viewBox="0 0 572 557" fill="none" xmlns="http://www.w3.org/2000/svg">
<path d="M299.878 279.59H59.546C48.751 279.59 40 288.366 40 299.193V400.74C40 411.566 48.751 420.343 59.546 420.343H235.2L265.035 442.077L270.829 420.343H299.878C310.673 420.343 319.424 411.566 319.424 400.74V299.193C319.424 288.366 310.673 279.59 299.878 279.59Z" fill="#002D71"/>
<path d="M512.454 25H272.122C255.83 25 242.576 38.28 242.576 54.603V156.149C242.576 172.472 255.83 185.752 272.122 185.752H293.487L297.302 200.062C298.151 203.249 300.517 205.812 303.626 206.913C304.712 207.298 305.841 207.487 306.963 207.487C309.052 207.487 311.118 206.833 312.852 205.57L340.056 185.753H512.453C528.745 185.753 541.999 172.473 541.999 156.15V54.603C542 38.28 528.746 25 512.454 25V25ZM522 156.149C522 161.444 517.718 165.752 512.454 165.752H336.801C334.685 165.752 332.623 166.423 330.913 167.669L312.869 180.813L310.833 173.176C309.666 168.798 305.702 165.752 301.171 165.752H272.122C266.858 165.752 262.576 161.444 262.576 156.149V54.603C262.576 49.308 266.858 45 272.122 45H512.454C517.718 45 522 49.308 522 54.603V156.149Z" fill="#002D71"/>
<path d="M216.303 232.41V180.878C216.303 153.805 195.225 131.573 168.654 129.804C179.005 118.665 185.345 103.733 185.345 87.345C185.345 52.968 157.445 25 123.152 25C88.859 25 60.958 52.968 60.958 87.345C60.958 103.733 67.298 118.665 77.649 129.804C51.078 131.573 30 153.805 30 180.878V232.41C30 237.933 34.477 242.41 40 242.41H206.303C211.826 242.41 216.303 237.933 216.303 232.41V232.41ZM123.151 45C146.417 45 165.344 63.996 165.344 87.345C165.344 110.694 146.416 129.69 123.151 129.69C99.886 129.69 80.958 110.694 80.958 87.345C80.958 63.996 99.886 45 123.151 45ZM196.303 222.41H50V180.878C50 163.681 63.937 149.69 81.068 149.69H165.234C182.365 149.69 196.303 163.681 196.303 180.878V222.41Z" fill="#002D71"/>
<path d="M481.139 74.345H303.437C297.915 74.345 293.437 78.822 293.437 84.345C293.437 89.868 297.915 94.345 303.437 94.345H481.139C486.661 94.345 491.139 89.868 491.139 84.345C491.139 78.822 486.661 74.345 481.139 74.345Z" fill="#002D71"/>
<path d="M481.139 116.262H303.437C297.915 116.262 293.437 120.739 293.437 126.262C293.437 131.785 297.915 136.262 303.437 136.262H481.139C486.661 136.262 491.139 131.785 491.139 126.262C491.139 120.739 486.661 116.262 481.139 116.262Z" fill="#002D71"/>
<path d="M494.351 374.394C504.702 363.255 511.042 348.323 511.042 331.935C511.042 297.558 483.143 269.59 448.849 269.59C414.555 269.59 386.656 297.558 386.656 331.935C386.656 348.323 392.996 363.255 403.347 374.394C376.776 376.163 355.698 398.395 355.698 425.468V477C355.698 482.523 360.176 487 365.698 487H532C537.522 487 542 482.523 542 477V425.468C542 398.395 520.922 376.163 494.351 374.394V374.394ZM448.849 289.59C472.115 289.59 491.042 308.586 491.042 331.935C491.042 355.284 472.114 374.28 448.849 374.28C425.584 374.28 406.656 355.284 406.656 331.935C406.656 308.586 425.583 289.59 448.849 289.59ZM522 467H375.697V425.468C375.697 408.271 389.635 394.28 406.765 394.28H490.931C508.062 394.28 521.999 408.271 521.999 425.468V467H522Z" fill="#002D71"/>
<path d="M268.563 318.935H90.861C85.338 318.935 80.861 323.412 80.861 328.935C80.861 334.458 85.338 338.935 90.861 338.935H268.563C274.086 338.935 278.563 334.458 278.563 328.935C278.563 323.412 274.086 318.935 268.563 318.935Z" fill="white"/>
<path d="M268.563 360.852H90.861C85.338 360.852 80.861 365.329 80.861 370.852C80.861 376.375 85.338 380.852 90.861 380.852H268.563C274.086 380.852 278.563 376.375 278.563 370.852C278.563 365.329 274.086 360.852 268.563 360.852Z" fill="white"/>
<rect y="288" width="572" height="269" fill="#2A7FFF" fill-opacity="0.8"/>
</svg>
