<svg width="224" height="300" viewBox="0 0 224 300" fill="none" xmlns="http://www.w3.org/2000/svg">
<path d="M7.02698 148.984C7.05042 149.083 24.5823 222.717 24.6051 222.813L77.3396 236.875L94.9178 293.125L165.23 257.969L217.965 148.984C195.87 148.984 29.8546 148.984 7.02698 148.984V148.984Z" fill="#F0F0F0"/>
<path d="M200.387 110.312L165.23 92.734L147.652 39.9994L94.9178 4.84306L59.7615 57.5776L24.6051 75.1558L7.02698 148.984H217.965L200.387 110.312Z" fill="#EFEFEF"/>
<path fill-rule="evenodd" clip-rule="evenodd" d="M223 148.985L204.225 108.904C203.67 107.682 202.712 106.688 201.511 106.087L168.526 89.5951L151.716 39.1633C151.303 37.9276 150.491 36.8635 149.407 36.1411L96.6727 0.984769C93.9797 -0.80996 90.3416 -0.0833969 88.5475 2.60958L54.2543 54.0491L20.4902 70.9318C18.9398 71.707 17.8119 73.129 17.41 74.8154L0 150.001L9.27364 191.016L17.4088 225.185C17.908 227.282 19.5176 228.935 21.5994 229.49L71.2137 242.721L87.8285 295.889C88.9389 299.406 92.877 300.962 96.0416 299.382L170.5 262.652L183.892 230.778C185.302 227.864 184.083 224.361 181.17 222.951C178.258 221.543 174.754 222.76 173.344 225.673L159.329 254.637L109.429 279.587L133.547 240.997C134.473 239.515 134.689 237.696 134.138 236.039L121.032 196.724L143.537 207.976C146.722 209.567 150.587 207.972 151.716 204.588L167.958 155.86H207.125L196.311 178.208C194.902 181.122 196.121 184.625 199.034 186.035C201.928 187.435 205.442 186.244 206.86 183.312L223 148.985ZM60.8854 63.8355L28.1754 80.1902L12.9498 144.141H37.4408L70.8756 90.6445C72.3105 88.3488 75.1307 87.3369 77.6977 88.1906L130.432 105.769C131.977 106.284 133.239 107.42 133.913 108.904L149.93 144.141H207.37L194.415 115.641L161.115 98.9906C159.724 98.2957 158.667 97.0775 158.176 95.6027L141.233 44.7755L104.381 20.2071L116.122 55.4284L132.722 72.0286C135.01 74.3173 135.01 78.0275 132.722 80.3156C130.433 82.6031 126.724 82.6037 124.435 80.3156L106.857 62.7374C106.213 62.0946 105.729 61.3101 105.442 60.447L91.6518 19.078L63.1406 61.845C62.5752 62.6935 61.7977 63.3796 60.8854 63.8355ZM51.259 144.141H137.057L124.301 116.079L78.3668 100.768L51.259 144.141ZM113.62 179.916L142.734 194.473L155.605 155.861H12.9492L21.3199 191.017L27.999 219.069L77.3525 232.231C79.2955 232.749 80.8365 234.226 81.4359 236.145L95.2107 280.224L122.146 237.127L105.441 187.01C104.692 184.762 105.37 182.283 107.161 180.731C108.95 179.177 111.5 178.856 113.62 179.916Z" fill="#EFEFEF"/>
<path fill-rule="evenodd" clip-rule="evenodd" d="M28.1754 80.1902L60.8854 63.8355C61.7977 63.3796 62.5752 62.6935 63.1406 61.845L91.6518 19.078L105.442 60.447C105.729 61.3101 106.213 62.0946 106.857 62.7374L124.435 80.3156C126.724 82.6037 130.433 82.6031 132.722 80.3156C135.01 78.0275 135.01 74.3173 132.722 72.0286L116.122 55.4284L104.381 20.2071L141.233 44.7755L158.176 95.6027C158.667 97.0775 159.724 98.2957 161.115 98.9906L194.415 115.641L207.37 144.141H149.93L133.913 108.904C133.239 107.42 131.977 106.284 130.432 105.769L77.6977 88.1906C75.1307 87.3369 72.3105 88.3488 70.8756 90.6445L37.4408 144.141H12.9498L28.1754 80.1902ZM137.057 144.141H51.259L78.3668 100.768L124.301 116.079L137.057 144.141Z" fill="#EFEFEF"/>
<path d="M218.308 159.017C221.026 153.242 220.692 147.364 217.563 145.891C214.433 144.418 209.691 147.908 206.973 153.683L162.674 247.818C159.956 253.594 160.29 259.472 163.419 260.945C166.549 262.417 171.291 258.928 174.009 253.152L218.308 159.017Z" fill="#EFEFEF"/>
</svg>
