<svg width="227" height="300" viewBox="0 0 227 300" fill="none" xmlns="http://www.w3.org/2000/svg">
<path d="M7.52698 149.999C7.55042 150.098 25.0823 223.732 25.1051 223.828L77.8396 237.89L95.4178 294.141L165.73 258.984L218.465 149.999C196.37 149.999 30.3546 149.999 7.52698 149.999Z" fill="#2A7FFF"/>
<path d="M200.887 111.327L165.73 93.7493L148.152 41.0147L95.4178 5.85834L60.2615 58.5929L25.1051 76.1711L7.52698 150H218.465L200.887 111.327Z" fill="white"/>
<path fill-rule="evenodd" clip-rule="evenodd" d="M225.5 150.001L206.225 108.904C205.67 107.682 204.712 106.688 203.511 106.087L170.526 89.5951L153.716 39.1633C153.303 37.9276 152.491 36.8635 151.407 36.1411L98.6727 0.984769C95.9797 -0.80996 92.3416 -0.0833969 90.5475 2.60958L56.2543 54.0491L22.4902 70.9318C20.9398 71.707 19.8119 73.129 19.41 74.8154L0.5 150.001L11.2736 191.016L19.4088 225.185C19.908 227.282 21.5176 228.935 23.5994 229.49L73.2137 242.721L89.8285 295.889C90.9389 299.406 94.877 300.962 98.0416 299.382L172.5 262.652L185.892 230.778C187.302 227.864 186.083 224.361 183.17 222.951C180.258 221.543 176.754 222.76 175.344 225.673L161.329 254.637L111.429 279.587L135.547 240.997C136.473 239.515 136.689 237.696 136.138 236.039L123.032 196.724L145.537 207.976C148.722 209.567 152.587 207.972 153.716 204.588L169.958 155.86H209.125L198.311 178.208C196.902 181.122 198.121 184.625 201.034 186.035C203.928 187.435 207.442 186.244 208.86 183.312L225.5 150.001ZM62.8854 63.8355L30.1754 80.1902L14.9498 144.141H39.4408L72.8756 90.6445C74.3105 88.3488 77.1307 87.3369 79.6977 88.1906L132.432 105.769C133.977 106.284 135.239 107.42 135.913 108.904L151.93 144.141H209.37L196.415 115.641L163.115 98.9906C161.724 98.2957 160.667 97.0775 160.176 95.6027L143.233 44.7755L106.381 20.2071L118.122 55.4284L134.722 72.0286C137.01 74.3173 137.01 78.0275 134.722 80.3156C132.433 82.6031 128.724 82.6037 126.435 80.3156L108.857 62.7374C108.213 62.0946 107.729 61.3101 107.442 60.447L93.6518 19.078L65.1406 61.845C64.5752 62.6935 63.7977 63.3796 62.8854 63.8355ZM53.259 144.141H139.057L126.301 116.079L80.3668 100.768L53.259 144.141ZM115.62 179.916L144.734 194.473L157.605 155.861H14.9492L23.3199 191.017L29.999 219.069L79.3525 232.231C81.2955 232.749 82.8365 234.226 83.4359 236.145L97.2107 280.224L124.146 237.127L107.441 187.01C106.692 184.762 107.37 182.283 109.161 180.731C110.95 179.177 113.5 178.856 115.62 179.916Z" fill="#001534"/>
<path d="M221.135 157.728C223.925 151.798 223.649 145.795 220.518 144.322C217.388 142.849 212.586 146.462 209.796 152.392L164.318 249.032C161.527 254.961 161.803 260.964 164.934 262.437C168.065 263.911 172.866 260.297 175.656 254.368L221.135 157.728Z" fill="#001534"/>
</svg>
