<svg width="386" height="513" viewBox="0 0 386 513" fill="none" xmlns="http://www.w3.org/2000/svg">
<path d="M261.312 80.0864L188.948 16.7004C186.699 14.7299 183.234 15.1617 181.537 17.6241L112.755 117.421C112.479 117.823 112.145 118.181 111.764 118.486L49.4993 168.358C48.7502 168.958 48.1896 169.761 47.8845 170.671L15.5257 267.182C15.1843 268.2 15.1798 269.301 15.5128 270.322L47.5875 368.656C48.0694 370.133 49.2108 371.302 50.676 371.82L127.358 398.899C128.505 399.304 129.465 400.113 130.058 401.175L182.292 494.648C183.636 497.053 186.673 497.918 189.083 496.58L280.717 445.718C281.593 445.232 282.303 444.494 282.755 443.599L369.88 270.968C370.586 269.571 370.596 267.924 369.908 266.518L338.331 201.98C337.886 201.07 337.176 200.317 336.294 199.821L284.007 170.373C282.769 169.676 281.886 168.485 281.579 167.098L262.899 82.7663C262.669 81.7268 262.113 80.7879 261.312 80.0864Z" fill="#F3F3F3" stroke="#F3F3F3" stroke-width="30"/>
</svg>
