<svg width="481" height="538" viewBox="0 0 481 538" fill="none" xmlns="http://www.w3.org/2000/svg">
<path d="M308.312 80.0864L235.948 16.7004C233.699 14.7299 230.234 15.1617 228.537 17.6241L159.755 117.421C159.479 117.823 159.145 118.181 158.764 118.486L96.4993 168.358C95.7502 168.958 95.1896 169.761 94.8845 170.671L62.5257 267.182C62.1843 268.2 62.1798 269.301 62.5128 270.322L94.5875 368.656C95.0694 370.133 96.2108 371.302 97.676 371.82L174.358 398.899C175.505 399.304 176.465 400.113 177.058 401.175L229.292 494.648C230.636 497.053 233.673 497.918 236.083 496.58L327.717 445.718C328.593 445.232 329.303 444.494 329.755 443.599L416.88 270.968C417.586 269.571 417.596 267.924 416.908 266.518L385.331 201.98C384.886 201.07 384.176 200.317 383.294 199.821L331.007 170.373C329.769 169.676 328.886 168.485 328.579 167.098L309.899 82.7663C309.669 81.7268 309.113 80.7879 308.312 80.0864Z" fill="white" stroke="#001534" stroke-width="30"/>
<rect y="269" width="481" height="269" fill="#2A7FFF" fill-opacity="0.8"/>
</svg>
