<svg width="586" height="238" viewBox="0 0 586 238" fill="none" xmlns="http://www.w3.org/2000/svg">
<g clip-path="url(#clip0)">
<path d="M247.312 160.056C251.152 161.272 254.16 163.32 256.336 166.2C258.512 169.016 259.6 172.504 259.6 176.664C259.6 182.552 257.296 187.096 252.688 190.296C248.144 193.432 241.488 195 232.72 195H197.968V127.8H230.8C238.992 127.8 245.264 129.368 249.616 132.504C254.032 135.64 256.24 139.896 256.24 145.272C256.24 148.536 255.44 151.448 253.84 154.008C252.304 156.568 250.128 158.584 247.312 160.056ZM213.424 139.512V155.352H228.88C232.72 155.352 235.632 154.68 237.616 153.336C239.6 151.992 240.592 150.008 240.592 147.384C240.592 144.76 239.6 142.808 237.616 141.528C235.632 140.184 232.72 139.512 228.88 139.512H213.424ZM231.568 183.288C235.664 183.288 238.736 182.616 240.784 181.272C242.896 179.928 243.952 177.848 243.952 175.032C243.952 169.464 239.824 166.68 231.568 166.68H213.424V183.288H231.568ZM315.63 180.6H284.43L278.478 195H262.542L292.494 127.8H307.854L337.902 195H321.582L315.63 180.6ZM310.734 168.792L300.078 143.064L289.422 168.792H310.734ZM376.097 196.152C369.249 196.152 363.041 194.68 357.473 191.736C351.969 188.728 347.617 184.6 344.417 179.352C341.281 174.04 339.713 168.056 339.713 161.4C339.713 154.744 341.281 148.792 344.417 143.544C347.617 138.232 351.969 134.104 357.473 131.16C363.041 128.152 369.281 126.648 376.193 126.648C382.017 126.648 387.265 127.672 391.937 129.72C396.673 131.768 400.641 134.712 403.841 138.552L393.857 147.768C389.313 142.52 383.681 139.896 376.961 139.896C372.801 139.896 369.089 140.824 365.825 142.68C362.561 144.472 360.001 147 358.145 150.264C356.353 153.528 355.457 157.24 355.457 161.4C355.457 165.56 356.353 169.272 358.145 172.536C360.001 175.8 362.561 178.36 365.825 180.216C369.089 182.008 372.801 182.904 376.961 182.904C383.681 182.904 389.313 180.248 393.857 174.936L403.841 184.152C400.641 188.056 396.673 191.032 391.937 193.08C387.201 195.128 381.921 196.152 376.097 196.152ZM438.823 168.6L429.799 178.008V195H414.343V127.8H429.799V159.192L459.559 127.8H476.839L448.999 157.752L478.471 195H460.327L438.823 168.6Z" fill="white"/>
<path d="M214.52 65.28V83.04H245.624V95.52H214.52V120H198.968V52.8H249.752V65.28H214.52ZM303.097 120L290.137 101.28H289.369H275.833V120H260.281V52.8H289.369C295.321 52.8 300.473 53.792 304.825 55.776C309.241 57.76 312.633 60.576 315.001 64.224C317.369 67.872 318.553 72.192 318.553 77.184C318.553 82.176 317.337 86.496 314.905 90.144C312.537 93.728 309.145 96.48 304.729 98.4L319.801 120H303.097ZM302.809 77.184C302.809 73.408 301.593 70.528 299.161 68.544C296.729 66.496 293.177 65.472 288.505 65.472H275.833V88.896H288.505C293.177 88.896 296.729 87.872 299.161 85.824C301.593 83.776 302.809 80.896 302.809 77.184ZM363.418 121.152C356.442 121.152 350.138 119.648 344.506 116.64C338.938 113.632 334.554 109.504 331.354 104.256C328.218 98.944 326.65 92.992 326.65 86.4C326.65 79.808 328.218 73.888 331.354 68.64C334.554 63.328 338.938 59.168 344.506 56.16C350.138 53.152 356.442 51.648 363.418 51.648C370.394 51.648 376.666 53.152 382.234 56.16C387.802 59.168 392.186 63.328 395.386 68.64C398.586 73.888 400.186 79.808 400.186 86.4C400.186 92.992 398.586 98.944 395.386 104.256C392.186 109.504 387.802 113.632 382.234 116.64C376.666 119.648 370.394 121.152 363.418 121.152ZM363.418 107.904C367.386 107.904 370.97 107.008 374.17 105.216C377.37 103.36 379.866 100.8 381.658 97.536C383.514 94.272 384.442 90.56 384.442 86.4C384.442 82.24 383.514 78.528 381.658 75.264C379.866 72 377.37 69.472 374.17 67.68C370.97 65.824 367.386 64.896 363.418 64.896C359.45 64.896 355.866 65.824 352.666 67.68C349.466 69.472 346.938 72 345.082 75.264C343.29 78.528 342.394 82.24 342.394 86.4C342.394 90.56 343.29 94.272 345.082 97.536C346.938 100.8 349.466 103.36 352.666 105.216C355.866 107.008 359.45 107.904 363.418 107.904ZM473.506 52.8V120H460.738L427.234 79.2V120H411.874V52.8H424.738L458.146 93.6V52.8H473.506ZM503.326 65.472H481.822V52.8H540.382V65.472H518.878V120H503.326V65.472Z" fill="white"/>
<path d="M172.668 105.695L155.533 97.3747L146.966 72.4136L121.263 55.7728L104.128 80.7339L86.9925 89.0543L78.4249 124H181.236L172.668 105.695Z" fill="white"/>
<path fill-rule="evenodd" clip-rule="evenodd" d="M184.665 124L175.27 104.548C175 103.97 174.532 103.499 173.947 103.215L157.87 95.4084L149.677 71.5374C149.476 70.9524 149.08 70.4488 148.552 70.1068L122.849 53.4661C121.537 52.6166 119.764 52.9605 118.889 54.2352L102.175 78.5833L85.718 86.5745C84.9624 86.9414 84.4126 87.6145 84.2167 88.4127L75 124L80.2511 143.415L84.2161 159.588C84.4594 160.58 85.2439 161.363 86.2586 161.626L110.441 167.888L118.539 193.054C119.08 194.719 120.999 195.456 122.542 194.708L158.833 177.322L165.36 162.235C166.047 160.856 165.453 159.198 164.033 158.53C162.614 157.864 160.906 158.44 160.219 159.819L153.388 173.528L129.066 185.338L140.822 167.072C141.273 166.371 141.379 165.51 141.11 164.725L134.722 146.116L145.691 151.442C147.243 152.195 149.127 151.44 149.677 149.839L157.594 126.774H176.684L171.413 137.352C170.726 138.731 171.32 140.389 172.74 141.057C174.151 141.719 175.863 141.156 176.554 139.768L184.665 124ZM105.407 83.2155L89.4638 90.9568L82.0428 121.227H93.9797L110.276 95.9052C110.975 94.8185 112.35 94.3396 113.601 94.7436L139.304 103.064C140.057 103.308 140.672 103.846 141 104.548L148.807 121.227H176.803L170.489 107.737L154.258 99.8557C153.581 99.5267 153.065 98.9501 152.826 98.2521L144.568 74.1938L126.606 62.5647L132.329 79.2362L140.42 87.0937C141.535 88.177 141.535 89.9331 140.42 91.0161C139.304 92.0989 137.496 92.0992 136.381 91.0161L127.813 82.6958C127.499 82.3915 127.263 82.0202 127.123 81.6116L120.402 62.0303L106.506 82.2734C106.23 82.675 105.851 82.9998 105.407 83.2155ZM100.715 121.227H142.532L136.315 107.944L113.927 100.697L100.715 121.227ZM131.109 138.161L145.299 145.051L151.573 126.774H82.0425L86.1224 143.415L89.3778 156.693L113.433 162.923C114.38 163.168 115.131 163.867 115.423 164.775L122.137 185.64L135.265 165.24L127.123 141.518C126.758 140.454 127.088 139.281 127.961 138.546C128.833 137.811 130.076 137.659 131.109 138.161Z" fill="white"/>
<path d="M182.537 127.658C183.897 124.851 183.763 122.01 182.237 121.312C180.711 120.615 178.371 122.326 177.011 125.132L154.845 170.875C153.485 173.682 153.619 176.523 155.145 177.221C156.671 177.918 159.011 176.208 160.371 173.401L182.537 127.658Z" fill="white"/>
</g>
<defs>
<clipPath id="clip0">
<rect width="586" height="238" fill="white"/>
</clipPath>
</defs>
</svg>
